<svg viewBox="0 0 14 14">

    <path d="M 7.25,6.5 Q 7.25,6.4 7.18,6.32 7.11,6.25 7,6.25 6.48,6.25 6.12,6.62 5.75,6.99 5.76,7.5 q 0,0.1 0.07,0.18 0.07,0.07 0.18,0.07 0.1,0 0.18,-0.07 Q 6.26,7.61 6.26,7.5 6.26,7.19 6.48,6.97 6.7,6.75 7,6.75 7.1,6.75 7.18,6.68 7.25,6.61 7.25,6.5 Z M 9,7.5 Q 9,8.32 8.42,8.92 7.84,9.5 7.01,9.5 6.19,9.5 5.6,8.92 5,8.340093 5,7.5 5,6.67 5.58,6.09 6.17,5.5 6.99,5.5 q 0.83,0 1.41,0.5867347 0.59,0.59 0.59,1.41 z M 1,12 H 13 V 11 H 1 Z M 10,7.5 Q 10,6.25 9.12,5.38 8.24,4.5 7,4.5 5.75,4.5 4.88,5.38 4,6.26 4,7.5 4,8.75 4.88,9.62 5.76,10.5 7,10.5 8.25,10.5 9.12,9.63 10,8.76 10,7.51 Z m -8,-5 h 3 v -1 H 2 Z M 1,4 H 13 V 3.06 2 H 6.54 L 6,3 H 1 Z M 14,2 v 10 q 0,0.41 -0.3,0.7 Q 13.4,13 13,13 H 1 Q 0.59,13 0.3,12.7 0,12.41 0,12 V 2 Q 0,1.59 0.3,1.3 0.58,1 1,1 H 13 Q 13.41,1 13.7,1.3 14,1.6 14,2 Z"></path>

</svg>